<svg id="Group_278" data-name="Group 278" xmlns="http://www.w3.org/2000/svg" width="43" height="43" viewBox="0 0 43 43">
  <path id="Path_231" data-name="Path 231" d="M0,0V43H43V0ZM40.611,40.611H2.389V2.389H40.611Z" fill="#fff"/>
  <path id="Path_232" data-name="Path 232" d="M50.991,56.725l-2.459-7.936h-.048l-2.556,7.936H42.842l4.533-11.512h2.266l4.485,11.512Z" transform="translate(-20.099 -21.211)" fill="#fff"/>
  <path id="Path_233" data-name="Path 233" d="M19.585,56.725V47.809H16.4v-2.6h9.258v2.6H22.478v8.916Z" transform="translate(-7.695 -21.211)" fill="#fff"/>
  <path id="Path_234" data-name="Path 234" d="M48.228,13.65A5.731,5.731,0,0,0,43.454,16a4.784,4.784,0,0,0-.724,1.274,7.09,7.09,0,0,0-.434,2.449v.022a5.868,5.868,0,0,0,5.931,5.808c.088,0,.177,0,.265,0a5.954,5.954,0,0,0-.265-11.9Zm.048,9.308a3.244,3.244,0,0,1-3.134-3.429,3.1,3.1,0,1,1,6.172.049A3.185,3.185,0,0,1,48.276,22.958Z" transform="translate(-19.843 -6.403)" fill="#fff"/>
  <path id="Path_235" data-name="Path 235" d="M22.248,25.533l-3.086-4.947h-.048v4.947H16.221V14.021h2.893v5.192h.048l3.182-5.192h3.038l-3.761,5.731,4,5.78Z" transform="translate(-7.61 -6.578)" fill="#fff"/>
</svg>
