<svg xmlns="http://www.w3.org/2000/svg" width="58.373" height="58.373" viewBox="0 0 58.373 58.373">
  <g id="play-icon" transform="translate(1527.688 411.148)">
    <g id="Group_254" data-name="Group 254" transform="translate(-1527.687 -411.148)">
      <path id="Path_183" data-name="Path 183" d="M-1498.5-352.776a29.219,29.219,0,0,1-29.186-29.186,29.219,29.219,0,0,1,29.186-29.186,29.219,29.219,0,0,1,29.186,29.186A29.219,29.219,0,0,1-1498.5-352.776Zm0-56.168a27.013,27.013,0,0,0-26.982,26.982A27.013,27.013,0,0,0-1498.5-354.98a27.013,27.013,0,0,0,26.982-26.982A27.013,27.013,0,0,0-1498.5-408.944Z" transform="translate(1527.687 411.148)" fill="#fff"/>
    </g>
    <path id="Path_184" data-name="Path 184" d="M-1422.6-322.813v15.548l10.85-7.944Z" transform="translate(-79.35 -66.704)" fill="#fff"/>
  </g>
</svg>
