<svg xmlns="http://www.w3.org/2000/svg" viewBox="0 0 473.1 464.16">
  <title>transition-v</title>
  <g id="Layer_2" data-name="Layer 2">
    <g id="Layer_1-2" data-name="Layer 1">
      <g id="Group_394" data-name="Group 394">
        <path id="Path_309" data-name="Path 309" d="M25.81.06h3.58Q86.7.06,144,0c2.14,0,3.06.6,3.75,2.64q27,80,54.19,160Q225.41,231.8,248.78,301c.7,2.08,1.82,2.36,3.71,2.36q52.1-.08,104.19,0h3.39c-14.52,38.91-28.89,77.45-43.26,116-9.77,0-19.31,0-28.86,0L184.83,419c-2.23,0-3.21-.67-4-2.76q-28-75.42-56.21-150.77L57.28,84.91Q42.06,44.11,26.86,3.3C26.53,2.39,26.26,1.46,25.81.06Z" style="fill: #fff"/>
        <path id="Path_310" data-name="Path 310" d="M253.5,292.5,352,.18H473.1c-1.89,5.09-3.69,10-5.52,14.88L392.22,217.13Q378.59,253.69,365,290.25c-.57,1.54-1.12,2.47-3.12,2.47q-53-.11-106-.06C255.2,292.66,254.58,292.58,253.5,292.5Z" style="fill: #fff"/>
        <path id="Path_311" data-name="Path 311" d="M156.47,456.52c-5-13.32-9.83-26.08-14.63-38.83l-43-114.06Q78.74,250.35,58.68,197.07q-21.27-56.4-42.56-112.8Q8.26,63.41.43,42.53a4.47,4.47,0,0,1-.34-2.79c3.74-9.82,7.59-19.59,11.67-30,1.59,4.17,3,7.75,4.34,11.34Q40.67,86.39,65.22,151.7q31.11,82.79,62.2,165.57,19.85,52.8,39.79,105.57a8.06,8.06,0,0,1,0,6.37c-3.38,8.44-6.6,17-9.88,25.42C157.14,455.12,156.9,455.57,156.47,456.52Z" style="fill: #fff"/>
        <path id="Path_313" data-name="Path 313" d="M312.63,433.33c-2,5-3.8,9.64-5.65,14.26s-3.76,9.05-5.42,13.65c-.79,2.17-1.87,2.93-4.24,2.92q-44.86-.23-89.73-.24-18.75,0-37.5,0H166.3c1.74-4.54,3.35-8.76,5-13,2-5.24,4.11-10.45,6-15.74a2.9,2.9,0,0,1,3.26-2.28c24.73.1,49.47.1,74.2.17,18.21.05,36.42.18,54.63.28Z" style="fill: #fff"/>
      </g>
    </g>
  </g>
</svg>
