<svg xmlns="http://www.w3.org/2000/svg" width="151.5" height="73.05" viewBox="0 0 151.5 73.05">
  <g id="Group_401" data-name="Group 401" transform="translate(-112.686 -66.393)">
    <path id="Path_332" data-name="Path 332" d="M188.406,89.726c.054-.179.095-.362.162-.535a39.414,39.414,0,0,1,6.293-10.863,31.844,31.844,0,0,1,16.711-10.674,37.945,37.945,0,0,1,7.446-1.176,40.4,40.4,0,0,1,5.925.048,34.369,34.369,0,0,1,13.605,4.02,35.747,35.747,0,0,1,14.826,15.259c.577,1.1,1.058,2.258,1.584,3.389l.012-.011c-.058-.007-.148.006-.168-.026-.108-.177-.2-.362-.3-.548a34.707,34.707,0,0,0-12.47-13.841A35.784,35.784,0,0,0,228.587,69.5a11.279,11.279,0,0,0-7.286,1.023,8.154,8.154,0,0,0-1.563,1.026c-.2.173-.381.373-.567.556a.539.539,0,0,0,.426.376c.378.112.765.195,1.15.28.406.089.816.164,1.222.251a1.242,1.242,0,0,1,.915.682,1.612,1.612,0,0,0,.625.683c.405.238.686.086.713-.383.01-.186.007-.375.031-.56.074-.554.154-.631.777-.759a1.186,1.186,0,0,0-.167-.246.928.928,0,0,0-.271-.15c-.451-.179-.521-.437-.4-.9a2.408,2.408,0,0,1,.164-.365,2.245,2.245,0,0,0,1.03.195,1.3,1.3,0,0,1,.81.29c.257.177.518.349.77.532a.915.915,0,0,0,1.3-.019.616.616,0,0,1,.154-.066c.186.116.4.238.605.377.43.293.843.613,1.285.887.529.328,1.082.619,1.624.928.068.039.134.083.223.138a1.047,1.047,0,0,1-.91.589,2.581,2.581,0,0,1-.621-.026c-.267-.039-.529-.112-.795-.162a5.962,5.962,0,0,0-.678-.1.456.456,0,0,0-.483.214.515.515,0,0,0,.041.59,2.692,2.692,0,0,0,.566.476c.241.157.507.276.812.438a2.315,2.315,0,0,1-.268.278,2.04,2.04,0,0,1-1.174.365c-.187,0-.374,0-.6,0a3.944,3.944,0,0,0-.085.388,1.127,1.127,0,0,1-.69.971,1.561,1.561,0,0,0-.812.9c-.206.455-.417.907-.627,1.36a2.929,2.929,0,0,1-1.051,1.211c-.38.255-.77.494-1.156.74-.764.488-.884.827-.578,1.673.128.352.279.695.411,1.045a2.735,2.735,0,0,1,.2,1.283,4.055,4.055,0,0,1-.119.5,1.333,1.333,0,0,1-.858-.73,9.069,9.069,0,0,1-.384-.985c-.085-.234-.138-.481-.237-.709a.7.7,0,0,0-1-.46c-.079.025-.157.056-.233.088a1.668,1.668,0,0,1-1.158.092c-.079-.024-.166-.022-.246-.046a1.818,1.818,0,0,0-1.609.249.812.812,0,0,1-.706.089,3.362,3.362,0,0,0-2.583.4,2.26,2.26,0,0,0-.889.937,7.647,7.647,0,0,0-.777,2.1,2.313,2.313,0,0,0,.276,1.624c.231.395.447.8.676,1.2a4.147,4.147,0,0,0,.246.361.441.441,0,0,0,.422.215c.578-.068,1.16-.116,1.732-.219a1.417,1.417,0,0,0,.952-.837c.148-.275.271-.562.414-.839a1.19,1.19,0,0,1,.213-.3c.05-.048.186-.091.219-.063.4.341.918.21,1.408.368-.031.225-.225.374-.3.577-.085.235-.188.463-.272.7-.076.215-.136.437-.206.655s-.142.428-.225.675h-.579c-2.04,0-4.08-.012-6.121.009a1.6,1.6,0,0,1-1.292-.5,2.327,2.327,0,0,0-1.433-.757c-.142-.175.024-.292.02-.5a.5.5,0,0,1-.111-.06c-.235-.18-.264-.254-.157-.45.089-.162.2-.316.313-.5-.076-.134-.153-.278-.237-.418a23.452,23.452,0,0,1-1.546-2.922,6.787,6.787,0,0,1-.644-2.4.615.615,0,0,0-.048-.179c-.006-.017-.03-.027-.074-.062-.153-.013-.275.1-.422.21a3.13,3.13,0,0,0,.15,1.274c.108.445.252.88.382,1.319a4.431,4.431,0,0,1,.18,1.85,1.127,1.127,0,0,1-.06.24c-.013.034-.056.056-.116.111-.065-.066-.157-.121-.192-.2a6.168,6.168,0,0,1-.234-.645c-.081-.258-.157-.519-.218-.781a1.394,1.394,0,0,0-.8-1.076c.014-.222.013-.429.044-.63a6.06,6.06,0,0,0-.507-3.471,1.08,1.08,0,0,1-.066-.776,8.6,8.6,0,0,1,1.747-3.484,10.557,10.557,0,0,0,.878-1.212,1.09,1.09,0,0,0,.226-.881.637.637,0,0,1,.068-.358,11.879,11.879,0,0,1,.974-1.952,2.043,2.043,0,0,1,.726-.759.619.619,0,0,0,.311-.373,2.272,2.272,0,0,1,.87-1.137c-.249.044-.355.051-.452.082a35.793,35.793,0,0,0-9.478,4.688,34.919,34.919,0,0,0-11.768,13.739c-.093.194-.112.45-.357.549Z" transform="translate(-32.562)" fill="#7db6df"/>
    <path id="Path_333" data-name="Path 333" d="M264.268,158.245c0,.263,0,.449,0,.634a.586.586,0,0,1-.432.613c-.136.048-.279.078-.42.113a8.113,8.113,0,0,0-2.2.865,1.951,1.951,0,0,1-1.5.419,8.031,8.031,0,0,1-.445.854,4.269,4.269,0,0,1-.679.806,6.047,6.047,0,0,1-.827.534c0,.02-.019.044-.013.06.233.548.148.694-.425.939a4.348,4.348,0,0,0-.548.3.707.707,0,0,0-.372.448l.331.479c-.043.023-.093.055-.146.08a.576.576,0,0,1-.482-.032,1.482,1.482,0,0,1-.88-1.776c.2-.678.429-1.345.671-2.1-.006-.018-.038-.115-.074-.21a1.216,1.216,0,0,1,.222-1.288,8.312,8.312,0,0,0,1.822-4.565c.011-.081.025-.163.039-.262a.931.931,0,0,0,.581-.876c.052-.412.076-.828.1-1.243.019-.291.013-.582.034-.873a1.844,1.844,0,0,1,.325-.994.532.532,0,0,0,.141-.46,3.741,3.741,0,0,0-.676-1.527,2.536,2.536,0,0,0-.556-.494,27.037,27.037,0,0,1-2.376-1.978c.039-.179.154-.161.252-.165.145-.006.291,0,.437,0q9.208,0,18.417,0a1.562,1.562,0,0,1,.693.066,1.575,1.575,0,0,0,.083.916.4.4,0,0,1-.064.413,1.036,1.036,0,0,1-.154.2,3.449,3.449,0,0,0-.883,1.557,6.9,6.9,0,0,1-1.029,1.842.692.692,0,0,1-.746.327,2.518,2.518,0,0,0-1.571.274,2.4,2.4,0,0,0-1.19,1.143,11.223,11.223,0,0,1-3.409,3.919,5.487,5.487,0,0,1-1.528.834C264.627,158.094,264.458,158.169,264.268,158.245Z" transform="translate(-61.288 -34.471)" fill="#7db6df"/>
    <path id="Path_334" data-name="Path 334" d="M189.065,154.479c.21.066.228.272.307.429A34.879,34.879,0,0,0,203.4,169.763a36.576,36.576,0,0,0,11.6,4.272,38,38,0,0,0,23.939-3.34,34.886,34.886,0,0,0,15.2-14.619c.359-.655.685-1.329,1.027-1.994l-.018-.015c.073.247-.07.447-.155.653a35.491,35.491,0,0,1-2.182,4.419A36.309,36.309,0,0,1,239.7,172.4a34,34,0,0,1-10.38,4,36.505,36.505,0,0,1-9.378.7,35.8,35.8,0,0,1-10.784-2.2,32.881,32.881,0,0,1-12.123-7.945,37.779,37.779,0,0,1-7.776-11.9,5.742,5.742,0,0,1-.181-.592Z" transform="translate(-32.852 -37.71)" fill="#7db6df"/>
    <path id="Path_335" data-name="Path 335" d="M272.241,125.243c.6.875,1.175,1.715,1.748,2.557s1.152,1.664,1.707,2.508c-.087.061-.118.1-.149.1-1.831,0-3.661,0-5.554,0a1.71,1.71,0,0,1,.142-.289c.166-.212.343-.415.526-.635a11.259,11.259,0,0,0-.845-1.317c-.274-.418-.559-.828-.84-1.241-.291-.429-.584-.857-.87-1.277a7.871,7.871,0,0,0-1.614.008,2.125,2.125,0,0,0-.066.361c-.005,1.02,0,2.041-.009,3.061a.931.931,0,0,0,.259.674,1.98,1.98,0,0,1,.445.587,50.939,50.939,0,0,1-5.2.043c-.049-.23.145-.336.265-.454a1.369,1.369,0,0,0,.4-1.064q-.02-5.06,0-10.119a1.465,1.465,0,0,0-.342-1.031,1.282,1.282,0,0,1-.357-.544c.088-.139.2-.1.3-.1q3.966,0,7.933,0a7.425,7.425,0,0,1,1.98.231,6.553,6.553,0,0,1,1.223.455,3.338,3.338,0,0,1,1.828,2.534,4.543,4.543,0,0,1,.068,1.367,3.953,3.953,0,0,1-1.78,2.881C273.076,124.786,272.686,124.984,272.241,125.243Zm-5.818-5.369c0,.587-.014,1.106,0,1.623a6.647,6.647,0,0,0,.061,1.576.613.613,0,0,0,.153.054c.851,0,1.7.019,2.555,0a2.411,2.411,0,0,0,1.3-.384,1.461,1.461,0,0,0,.736-1.474,1.493,1.493,0,0,0-1.139-1.335,2.874,2.874,0,0,0-.738-.1c-.831-.012-1.662-.006-2.493,0C266.741,119.829,266.622,119.852,266.423,119.874Z" transform="translate(-64.173 -21.796)" fill="#7db6df"/>
    <path id="Path_336" data-name="Path 336" d="M158.107,124.641v-.59c0-1.791-.007-3.582.005-5.372a1.3,1.3,0,0,0-.3-.917,1.9,1.9,0,0,1-.415-.63.644.644,0,0,1,.176-.072,34.076,34.076,0,0,1,4.258.069,1.167,1.167,0,0,1-.094.215c-.144.2-.293.4-.446.6a.757.757,0,0,0-.169.521c.009.166,0,.333,0,.5q0,5.31,0,10.62c0,.246-.01.492-.015.725a13.241,13.241,0,0,1-3.018.072c-1.155-1.248-2.325-2.545-3.5-3.834-1.163-1.271-2.321-2.548-3.475-3.805-.18.067-.148.185-.148.279,0,2.02,0,4.04-.007,6.06a.912.912,0,0,0,.259.672c.154.164.287.348.447.543-.08.046-.127.1-.175.1-1.395,0-2.789,0-4.241,0,.048-.124.058-.239.119-.29a1.853,1.853,0,0,0,.575-1.625c-.021-3.207-.008-6.413-.011-9.62,0-.795.064-.6-.413-1.252-.1-.132-.177-.278-.262-.419-.007-.012.006-.037.01-.056a.187.187,0,0,1,.034-.052.093.093,0,0,1,.056-.018h3.855c.149.159.323.336.487.521q2.912,3.261,5.824,6.524A1.844,1.844,0,0,0,158.107,124.641Z" transform="translate(-14.866 -21.779)" fill="#7db6df"/>
    <path id="Path_337" data-name="Path 337" d="M122.172,117.1c1-.071,4.877-.047,5.347.028.052.122-.042.191-.1.266-.147.176-.291.355-.454.516a.787.787,0,0,0-.227.62c.011.6,0,1.207,0,1.811q0,2.653,0,5.308a6.785,6.785,0,0,1-.241,1.851,3.727,3.727,0,0,1-2.052,2.459,6.357,6.357,0,0,1-1.722.539,17.174,17.174,0,0,1-4.543.1,8.4,8.4,0,0,1-1.948-.417,3.863,3.863,0,0,1-2.741-3.318,10.077,10.077,0,0,1-.1-1.367q-.015-3.372,0-6.744a1.394,1.394,0,0,0-.337-1.028,2.076,2.076,0,0,1-.368-.52c.035-.069.04-.093.055-.1a.1.1,0,0,1,.059-.017q2.5-.007,5-.013a2.231,2.231,0,0,1,.232.023c.092.193-.045.3-.136.391a2.058,2.058,0,0,0-.527,1.592c.033,2.061.014,4.121.012,6.182a3.418,3.418,0,0,0,.119,1.05,1.862,1.862,0,0,0,.976,1.16,2.565,2.565,0,0,0,.462.185,4.451,4.451,0,0,0,2.4-.006,1.994,1.994,0,0,0,1.531-1.9c.013-.187.01-.375.01-.562,0-2.144-.007-4.288.007-6.432a1.429,1.429,0,0,0-.338-1.028A1.284,1.284,0,0,1,122.172,117.1Z" transform="translate(0 -21.79)" fill="#7db6df"/>
    <path id="Path_338" data-name="Path 338" d="M295.824,129.571l-.986.941a.835.835,0,0,1-.088-.232q0-2.155,0-4.31a.443.443,0,0,1,.036-.121c.191-.072.308.081.441.161a12.612,12.612,0,0,0,3.875,1.522,7.785,7.785,0,0,0,2.045.2,2.048,2.048,0,0,0,.9-.23.892.892,0,0,0,.5-.739.8.8,0,0,0-.368-.808,3.417,3.417,0,0,0-.73-.344c-.455-.147-.92-.263-1.383-.384a12.192,12.192,0,0,1-2.962-1.141,7.068,7.068,0,0,1-1.171-.822,3.46,3.46,0,0,1-1.177-2.47,3.9,3.9,0,0,1,.072-1.3,3.3,3.3,0,0,1,1.757-2.086,7.023,7.023,0,0,1,2.26-.683,13.03,13.03,0,0,1,5.732.548l.42.127c.414-.173.649-.582,1.028-.77.047.045.1.07.1.1.056.786.029,3.619-.042,4.091-.2-.071-.392-.135-.582-.206a18.392,18.392,0,0,0-4.288-1.076,4.656,4.656,0,0,0-1.615.055,1.98,1.98,0,0,0-.524.19.646.646,0,0,0-.212.966,1.339,1.339,0,0,0,.63.5c.443.177.89.352,1.347.487a21.375,21.375,0,0,1,3.014,1.012,11.072,11.072,0,0,1,1.468.82,3.7,3.7,0,0,1-.124,6.058,5.953,5.953,0,0,1-2.2.852,11.192,11.192,0,0,1-4.1-.051,17.246,17.246,0,0,1-2.766-.756C296.045,129.626,295.944,129.6,295.824,129.571Z" transform="translate(-78.303 -21.596)" fill="#7db6df"/>
    <path id="Path_339" data-name="Path 339" d="M235.628,125.027a9.9,9.9,0,0,0-.018,2.574,1.779,1.779,0,0,0,.282.042c2.061,0,4.123,0,6.184.007a.828.828,0,0,0,.618-.232c.177-.167.376-.311.545-.448.066.026.09.029.1.042a.092.092,0,0,1,.021.058q.009,1.467.015,2.934a2.951,2.951,0,0,1-.026.295.9.9,0,0,1-.619.095q-2.529.007-5.059,0h-6.585c-.1-.158-.012-.234.051-.312a2.905,2.905,0,0,1,.244-.283,1.067,1.067,0,0,0,.323-.839q-.015-5.185,0-10.369a1.2,1.2,0,0,0-.277-.8,1.785,1.785,0,0,1-.417-.63c.072-.138.166-.113.243-.116,3.214-.08,11.438-.039,12.087.067a6.805,6.805,0,0,1,.036,1.154c.007.374,0,.749,0,1.124,0,.39.012.782-.01,1.153-.17.076-.23-.031-.3-.1-.153-.142-.3-.288-.443-.44a.639.639,0,0,0-.5-.211q-3.154.009-6.309.008a1.086,1.086,0,0,0-.192.038c-.169.267-.074.565-.091.848a7.418,7.418,0,0,0,0,.812,1.928,1.928,0,0,0,.085.879c.162.009.326.025.49.026,1.124,0,2.249-.01,3.373.008a1.082,1.082,0,0,0,.841-.316c.131-.131.285-.239.468-.39.042.091.1.156.1.221,0,1.208,0,2.415,0,3.622a.407.407,0,0,1-.036.116c-.121.066-.191-.029-.268-.09a4.6,4.6,0,0,1-.38-.324.8.8,0,0,0-.618-.232c-.749.012-1.5,0-2.249,0Z" transform="translate(-50.894 -21.768)" fill="#7db6df"/>
    <path id="Path_340" data-name="Path 340" d="M333,128.119c-.809-.068-5.834-.053-6.354.019l-.66,1.306.7.883a.8.8,0,0,1-.23.087q-2.153.007-4.307,0a.93.93,0,0,1-.182-.036c-.06-.237.1-.4.188-.58q1.554-3.163,3.12-6.321c.8-1.621,1.6-3.246,2.412-4.861a.8.8,0,0,0,.005-.873.941.941,0,0,1-.234-.621c.486-.073,3.686-.085,4.365-.019a.335.335,0,0,1,.054.031.146.146,0,0,1,.041.047q3.094,6.367,6.187,12.734c.046.093.089.188.126.284a.46.46,0,0,1,.011.127c-.055.12-.172.087-.267.087q-2.4.005-4.805,0c-.081,0-.162-.014-.234-.021-.083-.136.009-.207.08-.274.2-.185.4-.362.6-.543a2.021,2.021,0,0,0-.088-.4C333.369,128.83,333.185,128.482,333,128.119Zm-5.263-2.541a2.457,2.457,0,0,0,.3.037q1.811,0,3.623,0a1.609,1.609,0,0,0,.331-.082c-.709-1.49-1.4-2.934-2.086-4.377-.013-.028-.07-.035-.143-.07-.687,1.418-1.351,2.849-2.015,4.279A.743.743,0,0,0,327.738,125.579Z" transform="translate(-90.011 -21.794)" fill="#7db6df"/>
    <path id="Path_341" data-name="Path 341" d="M213.465,117.081c-.1.238-.148.391-.217.537-2.449,5.278-5.857,12.39-6.137,12.8-.769,0-1.559,0-2.349,0-.1,0-.2-.015-.286-.022-.264-.414-5.655-11.933-6.094-13.02a1.431,1.431,0,0,1-.052-.23,52.793,52.793,0,0,1,5.361-.032c.067.119-.021.193-.085.269-.215.254-.433.5-.675.785.32.809.707,1.589,1.059,2.384s.715,1.595,1.082,2.387.692,1.6,1.082,2.345c.06.011.082.022.1.016a.083.083,0,0,0,.045-.042q1.487-3.265,2.973-6.531c.076-.169.142-.343.213-.516-.154-.4-.511-.659-.664-1.032.066-.051.1-.095.125-.095C210.421,117.081,211.9,117.081,213.465,117.081Z" transform="translate(-36.837 -21.792)" fill="#7db6df"/>
    <path id="Path_342" data-name="Path 342" d="M369.4,130.4H357.525c-.05-.225.116-.328.225-.428a1.444,1.444,0,0,0,.43-1.176q-.021-5.025,0-10.05a1.466,1.466,0,0,0-.34-1.03,1.231,1.231,0,0,1-.354-.54c.032-.047.039-.068.054-.079a.114.114,0,0,1,.059-.017q2.4-.006,4.806-.009a1.73,1.73,0,0,1,.248.024c.014,0,.024.03.062.08a.939.939,0,0,1-.083.188c-.143.2-.292.405-.444.6a.735.735,0,0,0-.168.52c.006.083,0,.166,0,.25q0,4.119,0,8.239c0,.2.017.408.027.649a3.214,3.214,0,0,0,.381.047c1.893,0,3.787,0,5.68.008a.991.991,0,0,0,.725-.286,1.409,1.409,0,0,1,.53-.4c.04.047.084.075.085.1A26.115,26.115,0,0,1,369.4,130.4Z" transform="translate(-105.291 -21.798)" fill="#7db6df"/>
    <path id="Path_343" data-name="Path 343" d="M187.9,130.361c-.6.087-4.816.093-5.391.024-.06-.181.1-.258.182-.362.527-.652.455-.373.456-1.285q.006-4.9,0-9.806c0-.146-.007-.292,0-.437a.791.791,0,0,0-.191-.574c-.145-.177-.28-.363-.41-.551a1.008,1.008,0,0,1-.085-.207c.064-.038.1-.074.131-.074q2.56,0,5.12,0c.032,0,.065.038.127.076a1.172,1.172,0,0,1-.352.552,1.509,1.509,0,0,0-.357,1.086c.013,3.352.007,6.7.007,10.056,0,.1.007.209,0,.312a.658.658,0,0,0,.188.51C187.506,129.883,187.675,130.092,187.9,130.361Z" transform="translate(-30.013 -21.804)" fill="#7db6df"/>
    <path id="Path_344" data-name="Path 344" d="M248.386,105.3c0-.264.119-.37.269-.367a10.666,10.666,0,0,1,1.176.083c.105.013.209.127.291.214a2.85,2.85,0,0,1,.213.307.564.564,0,0,0,.587.275,1.237,1.237,0,0,1,1.141.348,1.372,1.372,0,0,0,1.039.337c.173-.01.372-.055.521.166a.937.937,0,0,1-1.02.265,1.369,1.369,0,0,0-.994-.019,1.845,1.845,0,0,0-1.178-.847,1.4,1.4,0,0,1-.582-.345A1.519,1.519,0,0,0,248.386,105.3Z" transform="translate(-58.366 -16.575)" fill="#7db6df"/>
    <path id="Path_345" data-name="Path 345" d="M260.982,109.315c-.444.054-.772.079-1.094.136-.3.052-.6.137-.978.226a1.3,1.3,0,0,0-.23-.145,1.354,1.354,0,0,0-.288-.064v-.9C259.133,108.314,259.905,108.529,260.982,109.315Z" transform="translate(-62.67 -18.096)" fill="#7db6df"/>
    <path id="Path_346" data-name="Path 346" d="M265.09,110.71v-.553l.4.174C265.51,110.6,265.315,110.576,265.09,110.71Z" transform="translate(-65.551 -18.823)" fill="#7db6df"/>
    <path id="Path_347" data-name="Path 347" d="M305.164,106.4l.238.6-.009-.005c-.191-.158-.362-.323-.22-.606Z" transform="translate(-82.769 -17.203)" fill="#7db6df"/>
    <path id="Path_348" data-name="Path 348" d="M188.8,154.014c-.139-.089-.092-.231-.1-.356l-.014.012.1.36Z" transform="translate(-32.689 -37.534)" fill="#7db6df"/>
    <path id="Path_349" data-name="Path 349" d="M188.358,107.308l-.021.142c-.008-.012-.026-.028-.023-.034.018-.031.04-.06.06-.091Z" transform="translate(-32.528 -17.598)" fill="#7db6df"/>
    <path id="Path_350" data-name="Path 350" d="M305.607,107.459l-.01.108v-.112Z" transform="translate(-82.974 -17.661)" fill="#7db6df"/>
    <path id="Path_351" data-name="Path 351" d="M188.651,153.614l-.08-.058.066.07Z" transform="translate(-32.639 -37.49)" fill="#7db6df"/>
    <path id="Path_352" data-name="Path 352" d="M305.212,153.459l.051.011-.036-.07-.021.049Z" transform="translate(-82.806 -37.423)" fill="#7db6df"/>
    <path id="Path_353" data-name="Path 353" d="M305.135,153.486c.01.123.1.269-.1.332l.018.015c.029-.109.058-.219.085-.332Z" transform="translate(-82.734 -37.46)" fill="#7db6df"/>
    <path id="Path_354" data-name="Path 354" d="M188.859,154.3c.152.042.141.154.118.272l.013-.011c-.038-.092-.075-.184-.113-.276Z" transform="translate(-32.763 -37.803)" fill="#7db6df"/>
  </g>
</svg>
