<svg xmlns="http://www.w3.org/2000/svg" xmlns:xlink="http://www.w3.org/1999/xlink" width="91.956" height="124.745" viewBox="0 0 91.956 124.745">
  <defs>
    <clipPath id="clip-path">
      <path id="Path_222" data-name="Path 222" d="M1041.982,373.784l.183,16.717H1020.1l-.046-16.717Z" transform="translate(-1020.049 -373.784)" fill="none"/>
    </clipPath>
    <clipPath id="clip-path-2">
      <path id="Path_221" data-name="Path 221" d="M1042.038,373.226l-6.37,16.864-15.619-16.717" transform="translate(-1020.049 -373.226)" fill="none"/>
    </clipPath>
    <linearGradient id="linear-gradient" x1="-10.156" y1="3.099" x2="-10.146" y2="3.099" gradientUnits="objectBoundingBox">
      <stop offset="0" stop-color="#fff"/>
      <stop offset="1" stop-color="#cccbcb"/>
    </linearGradient>
  </defs>
  <g id="volume-logo-text" transform="translate(-737.548 -83.026)">
    <path id="Path_219" data-name="Path 219" d="M882.357,227.983l-31.24-83.2H875.4l20.461,60.649,20.436-60.649h24.24l-31.222,83.264Z" transform="translate(-111.095 -61.753)" fill="#fff"/>
    <path id="Path_220" data-name="Path 220" d="M1020.049,205.433h21.933l22.742-60.649h-24.306Z" transform="translate(-235.286 -61.753)" fill="#7db6df"/>
    <g id="Group_275" data-name="Group 275" transform="translate(784.763 143.68)" opacity="0.75">
      <g id="Group_274" data-name="Group 274" transform="translate(0 0)">
        <g id="Group_273" data-name="Group 273" clip-path="url(#clip-path)">
          <g id="Group_272" data-name="Group 272" transform="translate(0 -0.148)">
            <g id="Group_271" data-name="Group 271" clip-path="url(#clip-path-2)">
              <rect id="Rectangle_31" data-name="Rectangle 31" width="26.521" height="23.377" transform="matrix(0.937, -0.35, 0.35, 0.937, -5.475, 0.602)" fill="url(#linear-gradient)"/>
            </g>
          </g>
        </g>
      </g>
    </g>
    <path id="Path_223" data-name="Path 223" d="M960.038,482.363l26.8.081-7.182,19.1Z" transform="translate(-191.169 -309.927)" fill="none"/>
    <path id="Path_224" data-name="Path 224" d="M989.385,459.008l-2.551,6.223-26.8-.081,2.386-6.2Z" transform="translate(-191.169 -292.713)" fill="#75889c"/>
    <path id="Path_225" data-name="Path 225" d="M841.775,151.062l2.482-6.3,31.233,83.2-2.386,6.2Z" transform="translate(-104.227 -61.739)" fill="#c5d0dd"/>
    <path id="Path_226" data-name="Path 226" d="M855.989,577.065l-4.617-13.486h3.886l2.844,9.208h.052L861,563.579h3.678l-4.565,13.486Z" transform="translate(-111.282 -369.633)" fill="#fff"/>
    <path id="Path_227" data-name="Path 227" d="M906.332,566.387a6.168,6.168,0,0,1,3.6-3.678,7.708,7.708,0,0,1,2.869-.509,7.813,7.813,0,0,1,2.882.509,6.141,6.141,0,0,1,3.613,3.678,8.28,8.28,0,0,1,.5,2.934,8.17,8.17,0,0,1-.5,2.921,6.335,6.335,0,0,1-1.408,2.23,6.135,6.135,0,0,1-2.2,1.422,8,8,0,0,1-2.882.5,7.889,7.889,0,0,1-2.869-.5,6.156,6.156,0,0,1-2.191-1.422,6.325,6.325,0,0,1-1.409-2.23,8.17,8.17,0,0,1-.5-2.921,8.28,8.28,0,0,1,.5-2.934M909.7,570.9a4.19,4.19,0,0,0,.535,1.383,2.842,2.842,0,0,0,1,.978,3.062,3.062,0,0,0,1.565.365,3.135,3.135,0,0,0,1.578-.365,2.814,2.814,0,0,0,1.017-.978,4.206,4.206,0,0,0,.535-1.383,7.9,7.9,0,0,0,.156-1.578,8.094,8.094,0,0,0-.156-1.591,4.069,4.069,0,0,0-.535-1.383,2.969,2.969,0,0,0-1.017-.978,3.057,3.057,0,0,0-1.578-.378,2.848,2.848,0,0,0-2.569,1.357,4.054,4.054,0,0,0-.535,1.383,8.094,8.094,0,0,0-.156,1.591,7.9,7.9,0,0,0,.156,1.578" transform="translate(-151.322 -368.619)" fill="#fff"/>
    <rect id="Rectangle_33" data-name="Rectangle 33" width="3.704" height="18.624" transform="translate(770.973 188.808)" fill="#fff"/>
    <path id="Path_228" data-name="Path 228" d="M1002.128,577.065v-1.878h-.078a4.172,4.172,0,0,1-1.826,1.7,5.4,5.4,0,0,1-2.3.522,6.483,6.483,0,0,1-2.439-.391,3.517,3.517,0,0,1-1.5-1.109,4.336,4.336,0,0,1-.77-1.747,10.856,10.856,0,0,1-.222-2.282v-8.3h3.7V571.2a4.724,4.724,0,0,0,.522,2.491,2.02,2.02,0,0,0,1.852.822,2.567,2.567,0,0,0,2.191-.9,5,5,0,0,0,.678-2.96v-7.069h3.7v13.486Z" transform="translate(-215.4 -369.633)" fill="#fff"/>
    <path id="Path_229" data-name="Path 229" d="M1055.293,562.565v1.826h.052a5.273,5.273,0,0,1,1.761-1.617,4.771,4.771,0,0,1,2.361-.574,5.432,5.432,0,0,1,2.334.5,3.282,3.282,0,0,1,1.6,1.748,5.745,5.745,0,0,1,1.63-1.565,4.334,4.334,0,0,1,2.439-.679,7.193,7.193,0,0,1,1.983.261,4,4,0,0,1,1.565.835,3.833,3.833,0,0,1,1.017,1.5,6.09,6.09,0,0,1,.365,2.23v9.025h-3.7v-7.643q0-.678-.052-1.278a2.717,2.717,0,0,0-.287-1.044,1.741,1.741,0,0,0-.692-.7,2.5,2.5,0,0,0-1.239-.261,2.375,2.375,0,0,0-1.265.3,2.178,2.178,0,0,0-.756.783,3.136,3.136,0,0,0-.365,1.1,8.379,8.379,0,0,0-.091,1.239v7.513h-3.7v-7.565q0-.6-.026-1.187a3.322,3.322,0,0,0-.222-1.082,1.67,1.67,0,0,0-.652-.8,2.467,2.467,0,0,0-1.344-.3,2.779,2.779,0,0,0-.691.117,2.292,2.292,0,0,0-.835.444,2.592,2.592,0,0,0-.691.939,3.811,3.811,0,0,0-.287,1.6v7.826h-3.7V562.565Z" transform="translate(-258.627 -368.619)" fill="#fff"/>
    <path id="Path_230" data-name="Path 230" d="M1142.789,572.817a3.8,3.8,0,0,0,4.33.248,2.328,2.328,0,0,0,.991-1.187h3.261a6.189,6.189,0,0,1-2.4,3.469,7.064,7.064,0,0,1-3.913,1.043,7.711,7.711,0,0,1-2.869-.508,5.966,5.966,0,0,1-2.165-1.448,6.522,6.522,0,0,1-1.369-2.243,8.2,8.2,0,0,1-.482-2.869,7.863,7.863,0,0,1,.5-2.817,6.517,6.517,0,0,1,3.587-3.756,6.983,6.983,0,0,1,2.8-.548,6.415,6.415,0,0,1,3,.665,6,6,0,0,1,2.1,1.787,7.355,7.355,0,0,1,1.187,2.556,9.529,9.529,0,0,1,.261,3h-9.729a3.743,3.743,0,0,0,.913,2.608m4.186-7.1a2.6,2.6,0,0,0-2.021-.73,3.225,3.225,0,0,0-1.474.3,2.812,2.812,0,0,0-.939.743,2.713,2.713,0,0,0-.5.939,4.233,4.233,0,0,0-.17.887h6.026a4.28,4.28,0,0,0-.926-2.139" transform="translate(-322.125 -368.619)" fill="#fff"/>
  </g>
</svg>
