<svg xmlns="http://www.w3.org/2000/svg" width="34.872" height="46.341" viewBox="0 0 34.872 46.341">
  <g id="volume-network-logo" transform="translate(1413.953 384.304)">
    <path id="Path_309" data-name="Path 309" d="M-1365.718-384.3h.264q4.217,0,8.435,0a.24.24,0,0,1,.276.194q1.989,5.887,3.988,11.771,1.726,5.092,3.446,10.186c.052.153.134.173.273.173q3.833-.005,7.667,0h.249l-3.183,8.533c-.719,0-1.422,0-2.124,0q-3.794-.012-7.588-.021a.262.262,0,0,1-.294-.2q-2.063-5.549-4.136-11.095l-4.957-13.287q-1.12-3-2.238-6.005C-1365.665-384.128-1365.685-384.2-1365.718-384.3Z" transform="translate(-46.334)" fill="#fff"/>
    <path id="Path_310" data-name="Path 310" d="M-940.668-362.453l7.245-21.511h8.914c-.139.374-.271.735-.406,1.1L-930.46-368q-1,2.69-2,5.38c-.042.113-.083.182-.23.182q-3.9-.008-7.8,0C-940.543-362.441-940.588-362.448-940.668-362.453Z" transform="translate(-454.629 -0.327)" fill="#fff"/>
    <path id="Path_311" data-name="Path 311" d="M-1402.437-333.272l-1.077-2.857q-1.583-4.2-3.166-8.393-1.478-3.92-2.954-7.842-1.565-4.151-3.131-8.3-.579-1.535-1.154-3.072a.327.327,0,0,1-.026-.2c.275-.722.559-1.441.859-2.209.117.307.22.57.319.835q1.808,4.806,3.615,9.613,2.289,6.092,4.577,12.184,1.46,3.885,2.928,7.768a.6.6,0,0,1,0,.469c-.249.621-.485,1.247-.727,1.871C-1402.388-333.375-1402.405-333.341-1402.437-333.272Z" transform="translate(0 -17.438)" fill="#fff"/>
    <path id="Path_312" data-name="Path 312" d="M-867.693,663.913h-1.331v-4.935h1.254v.636l.043.022a1.794,1.794,0,0,1,1.505-.8,1.439,1.439,0,0,1,1.446.8c.156-.149.3-.294.454-.431a2,2,0,0,1,2.251-.057,1.466,1.466,0,0,1,.593,1.109c.029.32.029.643.031.964,0,.814,0,1.629,0,2.443v.238H-862.8c0-.082,0-.153,0-.223q0-1.379,0-2.759a2.038,2.038,0,0,0-.028-.333.713.713,0,0,0-.751-.7.828.828,0,0,0-.917.661,3.245,3.245,0,0,0-.068.664c-.008.814,0,1.629,0,2.443v.244h-1.347v-.226q0-1.429,0-2.857a1.861,1.861,0,0,0-.022-.254.659.659,0,0,0-.494-.636.929.929,0,0,0-1.011.3,1.313,1.313,0,0,0-.243.874c0,.847,0,1.695,0,2.542Z" transform="translate(-523.449 -1002.02)" fill="#fff"/>
    <path id="Path_313" data-name="Path 313" d="M-1092.678,423.818c-.146.369-.28.709-.416,1.049s-.277.666-.4,1.005a.278.278,0,0,1-.312.214q-3.3-.017-6.6-.018l-2.76,0h-.279c.128-.335.246-.645.365-.955.148-.386.3-.769.443-1.158a.215.215,0,0,1,.24-.168c1.82.008,3.64.007,5.46.013,1.34,0,2.68.013,4.021.02Z" transform="translate(-298.267 -776.234)" fill="#fff"/>
    <path id="Path_314" data-name="Path 314" d="M-650.328,661.68h-3.594a1.1,1.1,0,0,0,.668,1.186,1.34,1.34,0,0,0,1.57-.435c.034-.053.1-.119.152-.12.347-.011.694-.006,1.072-.006a2.343,2.343,0,0,1-.594,1.04,1.8,1.8,0,0,1-.845.482,2.679,2.679,0,0,1-2.622-.516,2.536,2.536,0,0,1-.764-2.152,2.392,2.392,0,0,1,1.6-2.255,2.355,2.355,0,0,1,3.276,1.864C-650.358,661.06-650.356,661.361-650.328,661.68Zm-1.394-.868a1.042,1.042,0,0,0-1.252-1.058,1.018,1.018,0,0,0-.942,1.058Z" transform="translate(-728.753 -1001.915)" fill="#fff"/>
    <path id="Path_315" data-name="Path 315" d="M-1228.659,664.053a2.274,2.274,0,0,1-1.89-1.054,2.848,2.848,0,0,1,.678-3.763,2.768,2.768,0,0,1,3.516.543,2.927,2.927,0,0,1-.2,3.584A2.726,2.726,0,0,1-1228.659,664.053Zm1.463-2.595.05-.012a7.293,7.293,0,0,0-.229-.944.986.986,0,0,0-.873-.64,1.021,1.021,0,0,0-1.089.469,2.263,2.263,0,0,0-.044,2.184,1,1,0,0,0,1.034.54,1.042,1.042,0,0,0,.952-.587A2.072,2.072,0,0,0-1227.2,661.459Z" transform="translate(-175.768 -1002.023)" fill="#fff"/>
    <path id="Path_316" data-name="Path 316" d="M-1011.9,662.068h1.328V667h-1.256v-.691a.709.709,0,0,0-.092.086,2.027,2.027,0,0,1-2.531.524,1.357,1.357,0,0,1-.682-1.071,7.086,7.086,0,0,1-.072-.921c-.009-.874,0-1.747,0-2.621v-.251h.38c.256,0,.513.011.768,0,.181-.01.217.059.216.227-.007.9,0,1.8,0,2.7a2.41,2.41,0,0,0,.055.487.713.713,0,0,0,.784.626.885.885,0,0,0,1.031-.757,3.432,3.432,0,0,0,.07-.663C-1011.9,663.814-1011.9,662.954-1011.9,662.068Z" transform="translate(-383.022 -1005.11)" fill="#fff"/>
    <path id="Path_317" data-name="Path 317" d="M-1362.9,665.557c.226-.728.434-1.4.64-2.064.126-.407.245-.815.379-1.219a.243.243,0,0,1,.161-.147c.393-.013.786-.007,1.212-.007-.1.317-.2.613-.3.908q-.65,1.927-1.3,3.853a.238.238,0,0,1-.274.2c-.387-.016-.775,0-1.161-.01a.24.24,0,0,1-.183-.116q-.817-2.357-1.619-4.72c-.01-.029-.013-.061-.025-.115.446,0,.877-.006,1.307.008.05,0,.12.1.142.172.318,1.012.629,2.026.943,3.039C-1362.962,665.393-1362.941,665.447-1362.9,665.557Z" transform="translate(-46.667 -1005.172)" fill="#fff"/>
    <path id="Path_318" data-name="Path 318" d="M-1075.685,614.021v6.834h-1.338c0-.067-.011-.137-.011-.206,0-2.134,0-4.268,0-6.4,0-.181.049-.237.232-.23C-1076.44,614.031-1076.073,614.021-1075.685,614.021Z" transform="translate(-323.634 -958.967)" fill="#fff"/>
  </g>
</svg>
